<?xml version="1.0" encoding="UTF-8"?>
<svg width="100px" height="100px" viewBox="0 0 100 100" version="1.1" xmlns="http://www.w3.org/2000/svg" xmlns:xlink="http://www.w3.org/1999/xlink">
    <g id="Artboard-2" stroke="none" stroke-width="1" fill="none" fill-rule="evenodd">
        <path d="M98.0693738,72.7474558 L63.240795,11.6674856 C60.51169,6.85906243 55.5733094,4 49.9851419,4 C44.3969744,4 39.4585939,6.85906243 36.7294888,11.6674856 L2.03086748,72.7474558 C-0.698237573,77.555879 -0.698237573,83.1440464 2.16082486,87.9524696 C4.88992991,92.7608928 9.82831048,95.4899979 15.2865206,95.4899979 L84.8137207,95.4899979 C90.2719308,95.4899979 95.2103113,92.6309354 97.9394164,87.9524696 C100.668521,83.2740038 100.668521,77.555879 98.0693738,72.7474558 Z M52.714247,77.0360494 C52.714247,78.8554528 51.2847158,80.284984 49.4653124,80.284984 C47.645909,80.284984 46.2163778,78.8554528 46.2163778,77.0360494 L46.2163778,71.8377541 C46.2163778,70.0183507 47.645909,68.5888195 49.4653124,68.5888195 C51.2847158,68.5888195 52.714247,70.0183507 52.714247,71.8377541 L52.714247,77.0360494 Z M52.714247,61.4411634 C52.714247,63.2605668 51.2847158,64.690098 49.4653124,64.690098 C47.645909,64.690098 46.2163778,63.2605668 46.2163778,61.4411634 L46.2163778,34.1501129 C46.2163778,32.3307096 47.645909,30.9011783 49.4653124,30.9011783 C51.2847158,30.9011783 52.714247,32.3307096 52.714247,34.1501129 L52.714247,61.4411634 Z" id="Shape" fill="#000000" fill-rule="nonzero"></path>
    </g>
</svg>
