<?xml version="1.0" encoding="UTF-8"?>
<svg width="100px" height="100px" viewBox="0 0 100 100" version="1.1" xmlns="http://www.w3.org/2000/svg" xmlns:xlink="http://www.w3.org/1999/xlink">
    <g id="Artboard-2" stroke="none" stroke-width="1" fill="none" fill-rule="evenodd">
        <path d="M82.7775511,85.8265723 C88.2018684,78.0342395 86.7780984,67.3896446 79.4965644,61.2967855 C72.2150304,55.2039264 61.4861861,55.6797619 54.77263,62.393318 C48.059074,69.106874 47.5832385,79.8357184 53.6760976,87.1172523 C59.7689567,94.3987863 70.4135516,95.8225563 78.2058844,90.398239 L86.9394929,99.1318475 C88.2139949,100.319441 90.200082,100.284399 91.4318964,99.0525843 C92.6637107,97.8207699 92.6987529,95.8346828 91.5111596,94.5601808 L82.7775511,85.8265723 Z M55.8219693,75.3678066 C55.8219693,68.8174576 61.1320763,63.5073506 67.6824253,63.5073506 C74.2327743,63.5073506 79.5428813,68.8174576 79.5428813,75.3678066 C79.5428813,81.9181556 74.2327743,87.2282626 67.6824253,87.2282626 C61.1489307,87.1985673 55.8698734,81.8905837 55.8758805,75.3570244 L55.8219693,75.3678066 Z M18.8604756,82.2576533 C15.7111473,82.2576585 12.6911212,81.0051186 10.4662334,78.7761855 C8.24134546,76.5472523 6.99429358,73.524956 7.00001963,70.3756329 L7.00001963,25.0902555 C7.00052054,24.8765887 7.02219086,24.6634972 7.06471303,24.4541038 C7.09805111,24.3111074 7.14128413,24.1706 7.19409982,24.0335967 C7.24801098,23.9689033 7.24801098,23.9042099 7.24801098,23.8502987 C7.31551678,23.6970227 7.39482496,23.5492211 7.4852201,23.4082272 L7.5499135,23.3004049 C7.66966763,23.1218729 7.80692122,22.9557238 7.95963834,22.8044222 L29.8260063,0.959618711 C29.9773079,0.806901588 30.143457,0.669647993 30.321989,0.549893868 L30.4190291,0.485200472 C30.560023,0.394805329 30.7078246,0.315497147 30.8611006,0.247991352 L31.0443986,0.194080189 C31.1814019,0.141264503 31.3219092,0.0980314731 31.4649056,0.0646933962 C31.6742991,0.0221712314 31.8873906,0.000500911849 32.1010574,0 L60.5122405,0 C67.0625895,4.7882732e-16 72.3726965,5.31010701 72.3726965,11.860456 L72.3726965,48.4230071 C72.3726965,50.2094659 70.9244855,51.6576769 69.1380267,51.6576769 C67.3515679,51.6576769 65.9033569,50.2094659 65.9033569,48.4230071 L65.9033569,11.860456 C65.9033569,8.88302463 63.4896719,6.46933962 60.5122405,6.46933962 L35.3357272,6.46933962 L35.3357272,21.8771502 C35.3357272,25.4500678 32.4393052,28.3464898 28.8663876,28.3464898 L13.4693593,28.3464898 L13.4693593,70.3971973 C13.4693593,73.3746287 15.8830443,75.7883137 18.8604756,75.7883137 L41.1796973,75.7883137 C42.9661561,75.7883137 44.4143671,77.2365247 44.4143671,79.0229835 C44.4143671,80.8094423 42.9661561,82.2576533 41.1796973,82.2576533 L18.8604756,82.2576533 Z M18.0410259,21.8771502 L28.8232586,11.0949175 L28.8232586,21.8771502 L18.0410259,21.8771502 Z M55.4014622,35.7431014 C57.1879211,35.7431014 58.6361321,37.1913124 58.6361321,38.9777712 C58.6361321,40.76423 57.1879211,42.212441 55.4014622,42.212441 L24.0251651,42.212441 C22.2387063,42.212441 20.7904953,40.76423 20.7904953,38.9777712 C20.7904953,37.1913124 22.2387063,35.7431014 24.0251651,35.7431014 L55.4014622,35.7431014 Z M55.4014622,48.6817807 C57.1879211,48.6817807 58.6361321,50.1299917 58.6361321,51.9164505 C58.6361321,53.7029093 57.1879211,55.1511203 55.4014622,55.1511203 L24.0251651,55.1511203 C22.2387063,55.1511203 20.7904953,53.7029093 20.7904953,51.9164505 C20.7904953,50.1299917 22.2387063,48.6817807 24.0251651,48.6817807 L55.4014622,48.6817807 Z" id="Shape" fill="#000000" fill-rule="nonzero"></path>
    </g>
</svg>
